<?xml version="1.0" encoding="UTF-8"?>
<svg id="Ebene_1" xmlns="http://www.w3.org/2000/svg" version="1.1" viewBox="0 0 1024 1024">
  <!-- Generator: Adobe Illustrator 29.7.1, SVG Export Plug-In . SVG Version: 2.1.1 Build 8)  -->
  <defs>
    <style>
      .st0 {
        stroke: #e5e4e4;
        stroke-miterlimit: 10;
        stroke-width: 27px;
      }

      .st0, .st1 {
        fill: #e5e4e4;
      }
    </style>
  </defs>
  <path class="st1" d="M195.3.9h108.6v92.8h-108.6c-27.1,0-53,10.7-72.2,29.7h0c-19.1,19.1-29.8,45-29.8,71.9v132.9H0v-132.7c0-51.5,20.7-100.9,57.3-137.3h0C93.8,21.6,143.5.9,195.3.9ZM756.5.9h72.3c51.7,0,101.3,20.6,137.7,57.1h0c36.7,36.4,57.4,85.9,57.4,137.6v132.7h-93v-132.7c0-27-10.9-52.8-30.1-71.9h0c-19.1-19.1-45.1-29.8-72.2-29.8h-72.3V.9ZM1023.8,682.4v147c-.4,107.4-87.6,194.3-195.3,194.7h-72v-92.8h72.3c56.3-.3,101.9-45.7,102.2-101.8v-147h92.8ZM303.5,1023.8h-108.6c-51.7,0-101.2-20.6-137.7-57l-2.7-2.9C19.6,927.7,0,879.5,0,829.3v-147h93.1v147c0,26,10,51.1,28,70l2.1,1.8c19.1,19.1,45,29.9,72.1,30h108.6v92.8l-.3-.2Z"/>
  <path class="st0" d="M720,450.8l138.5,59.7c8.6,3.7,12.6,13.7,8.9,22.4-1.9,4.4-5.4,7.6-9.5,9.1l-134.7,54.5,135.3,58.3c8.6,3.7,12.6,13.7,8.9,22.3-1.9,4.4-5.4,7.6-9.5,9.1l-339.9,137.6c-4.2,1.7-8.8,1.6-12.8,0l-339.5-138c-8.7-3.5-12.9-13.4-9.4-22.1,1.9-4.8,5.8-8.1,10.2-9.7l133.4-57.8-134.3-54.6c-8.7-3.5-12.9-13.4-9.4-22.1,1.9-4.8,5.8-8.1,10.2-9.7l136.7-59.3-137.5-55.9c-8.7-3.5-12.9-13.4-9.4-22.1,1.9-4.8,5.8-8.1,10.2-9.7l337.1-146.3c4.5-1.9,9.3-1.8,13.4,0l341.3,147c8.6,3.7,12.6,13.7,8.9,22.3-1.9,4.4-5.4,7.6-9.5,9.1l-137.9,55.9h0ZM807.8,525.7l-132-56.9-157.6,63.8c-4.2,1.7-8.8,1.6-12.8,0l-158-64.2-131.3,56.9,295.8,120.2,296-119.8h0ZM679,614.4l-160.9,65.1c-4.2,1.7-8.8,1.6-12.8,0l-161.3-65.5-128.1,55.5,295.8,120.2,296-119.8-128.8-55.5h0ZM510.5,250.5l-294.5,127.7,295.8,120.2,296-119.8-297.3-128.1h0Z"/>
</svg>